<?xml version="1.0" encoding="UTF-8"?>
<svg version="1.1" xmlns="http://www.w3.org/2000/svg" width="500" height="500">
<path d="M0 0 C3.16171733 2.74475757 5.27942591 5.7710038 7.4609375 9.32421875 C8.09773438 10.35353516 8.73453125 11.38285156 9.390625 12.44335938 C10.04546875 13.51392578 10.7003125 14.58449219 11.375 15.6875 C12.67316983 17.79637947 13.97263098 19.90446463 15.2734375 22.01171875 C15.89847168 23.02637207 16.52350586 24.04102539 17.16748047 25.08642578 C19.30593007 28.4864068 21.5473461 31.8043423 23.84570312 35.09790039 C25.6726577 38.10843403 26.13429753 40.50826435 26 44 C24.23358828 46.80189446 22.96950178 48.51524911 20 50 C17.26090949 50.0992085 14.54785321 50.13980791 11.80859375 50.1328125 C10.989319 50.13376923 10.17004425 50.13472595 9.32594299 50.13571167 C7.58667932 50.1363932 5.84741311 50.13454082 4.1081543 50.13037109 C1.47243355 50.12507026 -1.16311304 50.13029199 -3.79882812 50.13671875 C-5.49218787 50.13605703 -7.18554751 50.13477392 -8.87890625 50.1328125 C-9.65738419 50.13483673 -10.43586212 50.13686096 -11.2379303 50.13894653 C-25.73684303 50.07830473 -25.73684303 50.07830473 -29.5625 46.8125 C-31.28643863 43.4395766 -31.69987322 41.73265718 -31 38 C-29.35108094 35.39948513 -28.63854214 34.42892263 -26 33 C-21.40282395 32.22699986 -16.84144188 32.20916864 -12.1875 32.1875 C-10.28967773 32.14979492 -10.28967773 32.14979492 -8.35351562 32.11132812 C-5.23536457 32.05249509 -2.11861633 32.01618494 1 32 C-0.79066882 29.06189063 -2.58270759 26.12461919 -4.375 23.1875 C-4.88289063 22.35412109 -5.39078125 21.52074219 -5.9140625 20.66210938 C-6.40390625 19.85966797 -6.89375 19.05722656 -7.3984375 18.23046875 C-7.84880371 17.49207764 -8.29916992 16.75368652 -8.76318359 15.99291992 C-9.80907225 14.3076477 -10.89978666 12.65032001 -12 11 C-12.67092652 4.84984026 -12.67092652 4.84984026 -10.125 1.625 C-6.37110057 -1.24562897 -4.59141551 -1.19376803 0 0 Z " fill="#63C1AB" transform="translate(209,152)"/>
<path d="M0 0 C1.22901115 4.15973005 0.66561378 7.11095808 -1.34692383 10.97753906 C-2.91096933 13.60278018 -4.53459266 16.17978687 -6.1875 18.75 C-6.77257324 19.67538574 -7.35764648 20.60077148 -7.96044922 21.55419922 C-9.14069745 23.4175618 -10.3253796 25.27812392 -11.51464844 27.13574219 C-13.00275343 29.4612863 -14.47723384 31.79459936 -15.9453125 34.1328125 C-22.6508021 44.74627852 -22.6508021 44.74627852 -25.1875 46.75 C-29.24833261 47.27640423 -31.49299057 47.11941991 -35.125 45.1875 C-37.1875 42.75 -37.1875 42.75 -37.65234375 39.671875 C-37.02199911 34.35367317 -34.72089455 30.97235324 -31.8125 26.5625 C-30.80358131 24.98638464 -29.7957301 23.40958534 -28.7890625 21.83203125 C-28.11351318 20.79912964 -28.11351318 20.79912964 -27.42431641 19.74536133 C-26.21543298 17.7950644 -25.17977909 15.81758562 -24.1875 13.75 C-24.91864014 13.76571045 -25.64978027 13.7814209 -26.40307617 13.79760742 C-29.7269716 13.86010351 -33.0507432 13.89903752 -36.375 13.9375 C-37.52548828 13.96263672 -38.67597656 13.98777344 -39.86132812 14.01367188 C-40.97314453 14.02333984 -42.08496094 14.03300781 -43.23046875 14.04296875 C-44.76223755 14.06653442 -44.76223755 14.06653442 -46.32495117 14.09057617 C-49.67457631 13.69204934 -51.49066765 12.74829227 -54.1875 10.75 C-56.51329101 7.26131349 -56.60615457 5.85281481 -56.1875 1.75 C-54.92197544 -0.59122043 -54.12180958 -1.91078208 -51.58642578 -2.83129883 C-48.0911166 -3.44135941 -44.59345433 -3.52930728 -41.0546875 -3.63671875 C-39.8668718 -3.67500542 -39.8668718 -3.67500542 -38.65505981 -3.71406555 C-36.97909812 -3.76600102 -35.30305734 -3.81543654 -33.62695312 -3.86254883 C-31.09193338 -3.93663975 -28.55787762 -4.02756707 -26.0234375 -4.11914062 C-4.66337927 -4.79661868 -4.66337927 -4.79661868 0 0 Z " fill="#EC1479" transform="translate(234.1875,215.25)"/>
<path d="M0 0 C1.50524986 -0.00006042 1.50524986 -0.00006042 3.04090881 -0.00012207 C5.16169501 0.00523577 7.28248051 0.02282964 9.40307617 0.05175781 C12.6449878 0.09355444 15.88481792 0.09283095 19.12695312 0.0859375 C21.18881649 0.09643223 23.25066916 0.10937185 25.3125 0.125 C26.7642588 0.12530212 26.7642588 0.12530212 28.24534607 0.12561035 C33.19377841 0.21235897 36.73058617 0.32636629 40.72265625 3.59375 C42.68404012 6.17921056 42.73563889 7.38170025 42.53515625 10.65625 C41.70348498 13.66306151 41.20036861 14.78311404 38.72265625 16.59375 C35.6344136 17.62316422 33.48560043 17.72282717 30.25 17.7265625 C29.18587891 17.72785156 28.12175781 17.72914063 27.02539062 17.73046875 C25.35959961 17.72466797 25.35959961 17.72466797 23.66015625 17.71875 C22.54576172 17.72261719 21.43136719 17.72648437 20.28320312 17.73046875 C18.68895508 17.72853516 18.68895508 17.72853516 17.0625 17.7265625 C16.08659912 17.72543457 15.11069824 17.72430664 14.10522461 17.72314453 C11.72265625 17.59375 11.72265625 17.59375 9.72265625 16.59375 C10.94694971 18.78411125 12.17579001 20.9715675 13.41015625 23.15625 C13.77375244 23.80086182 14.13734863 24.44547363 14.51196289 25.10961914 C16.39608231 28.41048275 18.31133112 31.5330438 20.66015625 34.53125 C23.0493636 38.07886092 23.72265625 40.32671663 23.72265625 44.59375 C22.37703226 47.54130732 21.63711081 49.13652272 18.72265625 50.59375 C15.47265625 51.09375 15.47265625 51.09375 11.72265625 50.59375 C6.16763255 44.99158324 2.26096757 38.35657261 -1.83984375 31.65625 C-2.80954102 30.08713867 -2.80954102 30.08713867 -3.79882812 28.48632812 C-5.05531613 26.45268375 -6.30830717 24.41687358 -7.55737305 22.37866211 C-9.45825006 19.30083328 -11.40945401 16.25797646 -13.39013672 13.23095703 C-14.86250558 10.51392193 -14.87485445 8.58130349 -14.27734375 5.59375 C-10.92330997 -0.76039498 -6.45549356 -0.10912827 0 0 Z " fill="#EE1379" transform="translate(279.27734375,211.40625)"/>
<path d="M0 0 C2.4375 2.125 2.4375 2.125 4 5 C3.9394266 11.79287425 0.68477813 16.28957794 -3 21.8125 C-4.10456479 23.50625085 -5.20875045 25.20024903 -6.3125 26.89453125 C-6.80363281 27.63550049 -7.29476563 28.37646973 -7.80078125 29.13989258 C-9.0369776 30.98330527 -9.0369776 30.98330527 -10 33 C-9.20827393 32.97905273 -8.41654785 32.95810547 -7.60083008 32.93652344 C-4.00484982 32.85324533 -0.40907264 32.80130109 3.1875 32.75 C4.43337891 32.71648437 5.67925781 32.68296875 6.96289062 32.6484375 C8.16494141 32.63554687 9.36699219 32.62265625 10.60546875 32.609375 C11.71043701 32.58842773 12.81540527 32.56748047 13.95385742 32.54589844 C17.70023981 33.10438776 19.32405398 34.37208146 22 37 C23.46296477 40.47454134 23.11275119 41.72080658 21.6875 45.25 C20 48 20 48 18 49 C7.11583598 50.09381797 -3.8839972 50.14767319 -14.8125 50.25 C-16.03437012 50.2713501 -17.25624023 50.2927002 -18.51513672 50.31469727 C-20.24981201 50.32134399 -20.24981201 50.32134399 -22.01953125 50.328125 C-23.05182861 50.3374707 -24.08412598 50.34681641 -25.14770508 50.35644531 C-28.45564585 49.94305889 -30.32664666 48.95976332 -33 47 C-34.57705034 43.84589932 -34.32257557 41.49870423 -34 38 C-32.75127837 35.21529907 -31.06467555 32.80356271 -29.3125 30.3125 C-28.30637556 28.82874579 -27.30120989 27.34434111 -26.296875 25.859375 C-25.76255859 25.07884766 -25.22824219 24.29832031 -24.67773438 23.49414062 C-22.90814699 20.86345019 -21.20627337 18.19766807 -19.515625 15.515625 C-18.94030029 14.60772217 -18.36497559 13.69981934 -17.7722168 12.7644043 C-16.64825066 10.98817508 -15.52975089 9.2084729 -14.41723633 7.42504883 C-13.8992749 6.61575928 -13.38131348 5.80646973 -12.84765625 4.97265625 C-12.39398682 4.25343994 -11.94031738 3.53422363 -11.47290039 2.79321289 C-8.14866172 -1.25394989 -4.86920515 -1.52162661 0 0 Z " fill="#6358A0" transform="translate(299,152)"/>
<path d="M0 0 C1.02480469 0.25330078 1.02480469 0.25330078 2.0703125 0.51171875 C3.875 1.3125 3.875 1.3125 5.875 4.3125 C6.43384865 9.81431134 5.22651584 13.52290555 2.5859375 18.2421875 C2.24503082 18.87681915 1.90412415 19.51145081 1.55288696 20.16531372 C0.83159807 21.50175381 0.10338297 22.83447653 -0.63134766 24.16357422 C-1.73909886 26.16777707 -2.8263731 28.18197253 -3.91015625 30.19921875 C-14.1726719 49.17364194 -14.1726719 49.17364194 -19.125 52.0625 C-23.1123321 52.39477768 -24.75606731 51.45468722 -28.125 49.3125 C-29.75615061 46.95279803 -31.02499658 44.83932323 -32.2890625 42.30078125 C-32.64841888 41.61372604 -33.00777527 40.92667084 -33.37802124 40.21879578 C-34.51849273 38.02894472 -35.63435255 35.82758339 -36.75 33.625 C-37.50623064 32.16389372 -38.26402918 30.70359783 -39.0234375 29.24414062 C-40.74914628 25.91684112 -42.46402621 22.58462825 -44.14849854 19.23623657 C-44.83949976 17.87494386 -45.54449971 16.5207149 -46.25921631 15.17172241 C-46.62661926 14.46818634 -46.99402222 13.76465027 -47.37255859 13.03979492 C-47.87775528 12.08758308 -47.87775528 12.08758308 -48.39315796 11.11613464 C-49.56708898 8.2229657 -49.13097195 6.19628625 -48.125 3.3125 C-47.0625 1.4375 -47.0625 1.4375 -45.125 0.3125 C-39.65864269 -0.39283643 -39.65864269 -0.39283643 -37.125 0.3125 C-32.11278512 4.27078205 -29.73316546 9.42041569 -26.9375 15.0625 C-26.07421482 16.78907036 -25.20597404 18.51317469 -24.33203125 20.234375 C-23.9553833 20.99331055 -23.57873535 21.75224609 -23.19067383 22.53417969 C-22.24248477 24.47764739 -22.24248477 24.47764739 -20.125 25.3125 C-19.89554688 24.51328125 -19.66609375 23.7140625 -19.4296875 22.890625 C-17.77686335 18.35773003 -15.5817254 14.2772806 -13.25 10.0625 C-12.81558594 9.2478125 -12.38117188 8.433125 -11.93359375 7.59375 C-11.50433594 6.81515625 -11.07507813 6.0365625 -10.6328125 5.234375 C-10.24754395 4.52893555 -9.86227539 3.82349609 -9.46533203 3.09667969 C-6.83882884 -0.39958357 -4.11234303 -1.10235811 0 0 Z " fill="#F9B619" transform="translate(271.125,136.6875)"/>
<path d="M0 0 C7.4566727 2.64090491 10.60649292 11.65196164 13.9375 18.25 C14.94555968 20.22319553 15.95467234 22.19585348 16.96484375 24.16796875 C17.45839355 25.14169434 17.95194336 26.11541992 18.46044922 27.11865234 C20.48055746 30.98139659 22.67334171 34.73889785 24.90063477 38.4855957 C26.21403116 41.56418752 26.3034659 43.74477611 26 47.0625 C24.4375 49.9375 24.4375 49.9375 22 52.0625 C18.5625 52.6875 18.5625 52.6875 15 52.0625 C9.86861991 47.94210373 7.22716867 42.49249823 4.1875 36.75 C3.68541016 35.81865234 3.18332031 34.88730469 2.66601562 33.92773438 C1.43601883 31.64345461 0.21434394 29.35512782 -1 27.0625 C-1.28198242 27.57635254 -1.56396484 28.09020508 -1.85449219 28.61962891 C-3.15023418 30.97711527 -4.45008302 33.33231334 -5.75 35.6875 C-6.1934375 36.49574219 -6.636875 37.30398438 -7.09375 38.13671875 C-13.94926264 50.53713132 -13.94926264 50.53713132 -17 52.0625 C-23.19296117 52.63592233 -23.19296117 52.63592233 -26.375 50.375 C-28.25270204 47.70288556 -28.76223942 46.31799096 -29 43.0625 C-28.07309101 40.62406296 -27.10686069 38.52688088 -25.875 36.25 C-25.34942505 35.24610229 -25.34942505 35.24610229 -24.81323242 34.22192383 C-24.01376276 32.70304997 -23.20718905 31.18790235 -22.39501953 29.67578125 C-20.81935238 26.72409397 -19.28351394 23.75302811 -17.74609375 20.78125 C-16.60308993 18.60336435 -15.45856133 16.42627825 -14.3125 14.25 C-13.7664209 13.19385498 -13.2203418 12.13770996 -12.65771484 11.04956055 C-12.12742676 10.05738525 -11.59713867 9.06520996 -11.05078125 8.04296875 C-10.58325439 7.15504639 -10.11572754 6.26712402 -9.6340332 5.35229492 C-7.04661045 1.72650111 -4.45928339 0.09290174 0 0 Z " fill="#64BFAC" transform="translate(251,224.9375)"/>
<path d="M0 0 C8 0 8 0 10.13671875 1.6875 C10.64847656 2.450625 11.16023438 3.21375 11.6875 4 C12.24953125 4.81339844 12.8115625 5.62679688 13.390625 6.46484375 C13.92171875 7.30144531 14.4528125 8.13804687 15 9 C15.76570313 10.17755859 15.76570313 10.17755859 16.546875 11.37890625 C17.72962376 13.23608759 18.87174821 15.1095657 20 17 C21.81434634 14.54301039 23.62654531 12.08448741 25.4375 9.625 C25.95376953 8.92632812 26.47003906 8.22765625 27.00195312 7.5078125 C27.49501953 6.8375 27.98808594 6.1671875 28.49609375 5.4765625 C28.95169678 4.85861816 29.4072998 4.24067383 29.87670898 3.60400391 C31.06782233 1.98664761 31.06782233 1.98664761 32 0 C34.64 0 37.28 0 40 0 C40 11.88 40 23.76 40 36 C37.03 36 34.06 36 31 36 C30.67 30.39 30.34 24.78 30 19 C29.154375 20.485 28.30875 21.97 27.4375 23.5 C25.16774182 26.85135656 24.49251229 27.82985939 20.5625 29.1875 C14.82637926 27.27545975 13.10452827 23.06861758 10 18 C9.67 23.94 9.34 29.88 9 36 C6.03 36 3.06 36 0 36 C0 24.12 0 12.24 0 0 Z " fill="#26285D" transform="translate(423,296)"/>
<path d="M0 0 C4.455 -0.0928125 4.455 -0.0928125 9 -0.1875 C9.91910156 -0.21481201 10.83820313 -0.24212402 11.78515625 -0.27026367 C18.25734942 -0.33479133 23.90654703 0.41723091 29.05859375 4.71875 C29.74115234 5.60046875 29.74115234 5.60046875 30.4375 6.5 C30.91058594 7.0878125 31.38367188 7.675625 31.87109375 8.28125 C34.81051021 12.75648613 34.52612883 17.86071263 34 23 C32.43918408 28.74618854 29.44783236 31.98571091 24.41601562 34.99438477 C19.88989563 36.87828617 15.31967673 36.51644827 10.5 36.3125 C7.035 36.209375 3.57 36.10625 0 36 C0 24.12 0 12.24 0 0 Z M10 9 C10 15.27 10 21.54 10 28 C17.53164039 28.39047234 17.53164039 28.39047234 23 25 C25.11154871 22.40855385 25.1350172 20.22611429 24.9375 17 C24.434744 13.9721661 23.99218187 12.99022734 22 10.5 C18.21737621 8.32917961 18.21737621 8.32917961 10 9 Z " fill="#26275E" transform="translate(278,296)"/>
<path d="M0 0 C3.17625 -0.061875 6.3525 -0.12375 9.625 -0.1875 C11.1092749 -0.22846802 11.1092749 -0.22846802 12.62353516 -0.27026367 C17.85422434 -0.31943025 21.48205183 0.0569202 26 3 C28.63326457 5.63326457 28.71180635 7.32553101 29 11 C28.0625 13.6875 28.0625 13.6875 27 16 C27 16.99 27 17.98 27 19 C27.66 19.66 28.32 20.32 29 21 C30.00975113 25.03900451 30.22825579 27.36328649 28.8125 31.3125 C26.88510547 34.17036086 26.13064742 34.81244199 23 36 C20.43457031 36.22705078 20.43457031 36.22705078 17.578125 36.1953125 C16.65418945 36.19031738 15.73025391 36.18532227 14.77832031 36.18017578 C13.61397461 36.16196777 12.44962891 36.14375977 11.25 36.125 C7.5375 36.08375 3.825 36.0425 0 36 C0 24.12 0 12.24 0 0 Z M9 8 C9 10.31 9 12.62 9 15 C13.455 14.505 13.455 14.505 18 14 C18.38218767 12.34385343 18.71395102 10.67542976 19 9 C17.99163938 7.76732652 17.99163938 7.76732652 15.93359375 7.90234375 C14.69802734 7.91974609 14.69802734 7.91974609 13.4375 7.9375 C12.19806641 7.95103516 12.19806641 7.95103516 10.93359375 7.96484375 C9.97646484 7.98224609 9.97646484 7.98224609 9 8 Z M9 22 C9 24.31 9 26.62 9 29 C10.45823212 29.0270043 11.91660675 29.04639787 13.375 29.0625 C14.59316406 29.07990234 14.59316406 29.07990234 15.8359375 29.09765625 C18.04937142 29.14466334 18.04937142 29.14466334 20 28 C20.042721 26.33388095 20.04063832 24.66617115 20 23 C18.96593327 21.74050951 18.96593327 21.74050951 16.71484375 21.90234375 C15.79832031 21.91394531 14.88179687 21.92554688 13.9375 21.9375 C13.01839844 21.94652344 12.09929687 21.95554687 11.15234375 21.96484375 C10.44207031 21.97644531 9.73179688 21.98804688 9 22 Z " fill="#282A5C" transform="translate(113,296)"/>
<path d="M0 0 C3.17625 -0.061875 6.3525 -0.12375 9.625 -0.1875 C11.1092749 -0.22846802 11.1092749 -0.22846802 12.62353516 -0.27026367 C17.85422434 -0.31943025 21.48205183 0.0569202 26 3 C28.63326457 5.63326457 28.71180635 7.32553101 29 11 C28.0625 13.6875 28.0625 13.6875 27 16 C27 16.99 27 17.98 27 19 C27.66 19.66 28.32 20.32 29 21 C29.93489689 24.81150272 30.3878281 27.10187177 28.8125 30.75 C26.33117394 33.83026683 24.45895547 35.80631491 20.43457031 36.34057617 C19.02062988 36.3170105 19.02062988 36.3170105 17.578125 36.29296875 C16.65418945 36.28547607 15.73025391 36.2779834 14.77832031 36.27026367 C13.61397461 36.24295166 12.44962891 36.21563965 11.25 36.1875 C7.5375 36.125625 3.825 36.06375 0 36 C0 24.12 0 12.24 0 0 Z M9 8 C9 10.31 9 12.62 9 15 C13.455 14.505 13.455 14.505 18 14 C18.38218767 12.34385343 18.71395102 10.67542976 19 9 C17.99163938 7.76732652 17.99163938 7.76732652 15.93359375 7.90234375 C14.69802734 7.91974609 14.69802734 7.91974609 13.4375 7.9375 C12.19806641 7.95103516 12.19806641 7.95103516 10.93359375 7.96484375 C9.97646484 7.98224609 9.97646484 7.98224609 9 8 Z M9 22 C9 24.31 9 26.62 9 29 C10.45823212 29.0270043 11.91660675 29.04639787 13.375 29.0625 C14.59316406 29.07990234 14.59316406 29.07990234 15.8359375 29.09765625 C18.04937142 29.14466334 18.04937142 29.14466334 20 28 C20.042721 26.33388095 20.04063832 24.66617115 20 23 C18.96593327 21.74050951 18.96593327 21.74050951 16.71484375 21.90234375 C15.79832031 21.91394531 14.88179687 21.92554688 13.9375 21.9375 C13.01839844 21.94652344 12.09929688 21.95554687 11.15234375 21.96484375 C10.44207031 21.97644531 9.73179688 21.98804688 9 22 Z " fill="#292A5D" transform="translate(37,296)"/>
<path d="M0 0 C3.17625 -0.061875 6.3525 -0.12375 9.625 -0.1875 C11.1092749 -0.22846802 11.1092749 -0.22846802 12.62353516 -0.27026367 C18.72422649 -0.32760795 23.10257777 0.4023111 27.8125 4.625 C29.65227001 8.30454001 30.12762698 11.90175587 30 16 C28.75 19.5 28.75 19.5 27 22 C26.01 22.33 25.02 22.66 24 23 C24.433125 23.77085937 24.86625 24.54171875 25.3125 25.3359375 C25.869375 26.33882813 26.42625 27.34171875 27 28.375 C27.556875 29.37273437 28.11375 30.37046875 28.6875 31.3984375 C30 34 30 34 30 36 C26.52025513 36.55703426 23.45576558 36.77651875 20 36 C17.27552262 33.36598379 15.53339966 30.45326589 14 27 C14 26.34 14 25.68 14 25 C12.02 25.99 12.02 25.99 10 27 C10 29.97 10 32.94 10 36 C6.7 36 3.4 36 0 36 C0 24.12 0 12.24 0 0 Z M9 8 C9 11.3 9 14.6 9 18 C14.86350756 18.3754135 14.86350756 18.3754135 20 16 C21.08568503 14.15732132 21.08568503 14.15732132 21 12 C20.26929996 9.57817235 20.26929996 9.57817235 18 8 C14.92101234 7.65122972 12.11594876 7.81936529 9 8 Z " fill="#282A5F" transform="translate(383,296)"/>
<path d="M0 0 C2.40784448 2.85931532 3.375 4.87058319 3.375 8.6328125 C0.405 8.6328125 -2.565 8.6328125 -5.625 8.6328125 C-5.955 7.6428125 -6.285 6.6528125 -6.625 5.6328125 C-11.08311138 2.93092682 -14.73707217 3.52908686 -19.625 4.6328125 C-22.08034287 6.77133694 -22.55457577 8.40141859 -23.5 11.5078125 C-23.65931868 15.49077948 -22.91585886 17.3812709 -20.625 20.6328125 C-17.9222332 22.39498653 -17.9222332 22.39498653 -14.625 22.6328125 C-10.24076033 21.24446994 -8.19829017 20.49274776 -5.625 16.6328125 C-3.2421875 16.33984375 -3.2421875 16.33984375 -0.5 16.4453125 C0.86511719 16.48591797 0.86511719 16.48591797 2.2578125 16.52734375 C2.95648438 16.56214844 3.65515625 16.59695313 4.375 16.6328125 C2.76945364 22.76308043 -0.06615751 26.76048873 -5.1875 30.5078125 C-11.00879713 32.41296429 -17.22024785 32.9219905 -23.0390625 30.71875 C-28.01627439 27.82935733 -31.21438531 24.15934921 -33.375 18.7578125 C-34.31404844 10.77590076 -33.340112 5.32637601 -28.625 -1.3671875 C-20.06710664 -8.94987906 -7.96898091 -7.31766997 0 0 Z " fill="#27295B" transform="translate(369.625,301.3671875)"/>
<path d="M0 0 C2.97 0 5.94 0 9 0 C12.53652629 6.76732484 15.4225231 13.72325923 18.25 20.8125 C18.93835938 22.50922852 18.93835938 22.50922852 19.640625 24.24023438 C20.07375 25.32240234 20.506875 26.40457031 20.953125 27.51953125 C21.34661133 28.50026611 21.74009766 29.48100098 22.14550781 30.49145508 C23 33 23 33 23 36 C19.7 36 16.4 36 13 36 C12.67 34.02 12.34 32.04 12 30 C7.38 30 2.76 30 -2 30 C-2.495 32.475 -2.495 32.475 -3 35 C-4 36 -4 36 -6.06640625 36.09765625 C-6.89011719 36.08605469 -7.71382812 36.07445312 -8.5625 36.0625 C-9.38878906 36.05347656 -10.21507812 36.04445313 -11.06640625 36.03515625 C-11.70449219 36.02355469 -12.34257812 36.01195312 -13 36 C-12.39451018 31.31294407 -11.06579277 27.1971335 -9.27734375 22.8515625 C-9.01240616 22.19417084 -8.74746857 21.53677917 -8.47450256 20.85946655 C-7.63451863 18.77895646 -6.78616677 16.70198123 -5.9375 14.625 C-5.36337408 13.20725717 -4.78980069 11.78929046 -4.21679688 10.37109375 C-2.81757872 6.91145013 -1.41083966 3.45492329 0 0 Z M4 13 C3.01 16.3 2.02 19.6 1 23 C3.64 23 6.28 23 9 23 C8.55090939 21.51800098 8.09043436 20.03944764 7.625 18.5625 C7.24214844 17.32693359 7.24214844 17.32693359 6.8515625 16.06640625 C6.19117773 13.82201984 6.19117773 13.82201984 4 13 Z " fill="#292A5C" transform="translate(247,296)"/>
<path d="M0 0 C7.92 0 15.84 0 24 0 C24 2.64 24 5.28 24 8 C19.05 8 14.1 8 9 8 C9 9.98 9 11.96 9 14 C13.62 14 18.24 14 23 14 C23 16.64 23 19.28 23 22 C18.38 22 13.76 22 9 22 C9 24.31 9 26.62 9 29 C14.28 29 19.56 29 25 29 C25 31.31 25 33.62 25 36 C16.75 36 8.5 36 0 36 C0 24.12 0 12.24 0 0 Z " fill="#292A5D" transform="translate(202,296)"/>
<path d="M0 0 C2.79119563 4.3218513 2.80694087 7.99266463 1.9375 13 C-0.3225477 17.43638994 -3.45776698 20.59552993 -7.0625 24 C-3.7625 24.33 -0.4625 24.66 2.9375 25 C2.9375 27.64 2.9375 30.28 2.9375 33 C-5.9725 33 -14.8825 33 -24.0625 33 C-24.0625 26 -24.0625 26 -22.71728516 24.09130859 C-22.10159668 23.61516113 -21.4859082 23.13901367 -20.8515625 22.6484375 C-20.18382813 22.10703125 -19.51609375 21.565625 -18.828125 21.0078125 C-18.12171875 20.46898437 -17.4153125 19.93015625 -16.6875 19.375 C-10.41823382 14.78542013 -10.41823382 14.78542013 -7.0625 8 C-8.29059091 6.35444301 -8.29059091 6.35444301 -10.0625 5 C-12.17399645 4.92357291 -12.17399645 4.92357291 -14.0625 6 C-15.34686734 7.9837767 -15.34686734 7.9837767 -16.0625 10 C-18.7025 10 -21.3425 10 -24.0625 10 C-23.65208626 4.76722477 -22.98611463 1.61385558 -19.0625 -2 C-12.19321927 -5.09791092 -6.15741492 -4.02116893 0 0 Z " fill="#28295C" transform="translate(99.0625,299)"/>
<path d="M0 0 C5.17778402 -0.07431132 10.35525569 -0.12867808 15.53344727 -0.16479492 C17.29391896 -0.17985553 19.0543533 -0.20030826 20.81469727 -0.22631836 C23.34921503 -0.26282229 25.88323552 -0.27975354 28.41796875 -0.29296875 C29.20149216 -0.30845261 29.98501556 -0.32393646 30.7922821 -0.33988953 C35.3931682 -0.34129761 38.33904839 0.15104266 42 3 C43.96138387 5.58546056 44.01298264 6.78795025 43.8125 10.0625 C42.98082873 13.06931151 42.47771236 14.18936404 40 16 C35.15787139 17.61404287 30.19525213 17.184521 25.125 17.1875 C23.49111328 17.20586914 23.49111328 17.20586914 21.82421875 17.22460938 C20.77105469 17.22654297 19.71789062 17.22847656 18.6328125 17.23046875 C17.67262207 17.23457764 16.71243164 17.23868652 15.72314453 17.24291992 C12.75059885 16.977752 10.65331145 16.35822591 8 15 C6.36479813 12.83114586 5.02208425 10.83488934 3.6875 8.5 C3.32849609 7.90574219 2.96949219 7.31148437 2.59960938 6.69921875 C0 2.31206845 0 2.31206845 0 0 Z " fill="#FAB619" transform="translate(278,212)"/>
<path d="M0 0 C1.25668488 0.00212242 1.25668488 0.00212242 2.53875732 0.00428772 C5.20816657 0.00987428 7.8774912 0.02242431 10.546875 0.03515625 C12.35937379 0.04017299 14.17187389 0.04473559 15.984375 0.04882812 C20.42190748 0.05983931 24.85937691 0.0770947 29.296875 0.09765625 C28.19249897 1.86819672 27.08354144 3.63588003 25.97265625 5.40234375 C25.35559814 6.38702637 24.73854004 7.37170898 24.1027832 8.38623047 C21.68692271 12.01345051 19.26301452 15.11458649 15.296875 17.09765625 C11.36508 17.36715305 7.42436284 17.3292773 3.484375 17.34765625 C1.8437207 17.37859375 1.8437207 17.37859375 0.16992188 17.41015625 C-1.4165918 17.41789062 -1.4165918 17.41789062 -3.03515625 17.42578125 C-4.00171143 17.43512695 -4.9682666 17.44447266 -5.96411133 17.45410156 C-9.22874168 17.0292544 -11.06144749 16.03695031 -13.703125 14.09765625 C-16.02891601 10.60896974 -16.12177957 9.20047106 -15.703125 5.09765625 C-14.35092392 2.59608425 -13.57477571 1.37762367 -10.84014893 0.49928284 C-7.25550743 -0.17440514 -3.63416503 -0.02314079 0 0 Z " fill="#FAB618" transform="translate(193.703125,211.90234375)"/>
<path d="M0 0 C3.19552643 2.76961427 5.32529643 5.8428754 7.53125 9.4296875 C8.17707031 10.47253906 8.82289063 11.51539063 9.48828125 12.58984375 C10.48408203 14.21599609 10.48408203 14.21599609 11.5 15.875 C12.82215988 18.01869611 14.14505467 20.16193916 15.46875 22.3046875 C16.08234375 23.29952148 16.6959375 24.29435547 17.328125 25.31933594 C19.16015635 28.25679275 21.04781318 31.14144073 23 34 C22.505 34.99 22.505 34.99 22 36 C21.01 35.505 21.01 35.505 20 35 C18.04480129 35.01873992 16.08959978 35.03871152 14.13452148 35.06738281 C4.37050398 35.04685076 4.37050398 35.04685076 0.6015625 32.16796875 C-1.20882858 29.53737702 -2.58837228 26.8639044 -4 24 C-5.10157967 22.32788892 -6.2034141 20.65591064 -7.31616211 18.99121094 C-10.79896916 13.77723722 -12.66943831 10.40967948 -12 4 C-8.27771943 -0.71488872 -5.77958862 -1.50269304 0 0 Z " fill="#62589F" transform="translate(209,152)"/>
<path d="M0 0 C2.4375 2.125 2.4375 2.125 4 5 C3.99101876 11.97842198 0.42968871 16.67516489 -3.375 22.3125 C-3.96539062 23.21806641 -4.55578125 24.12363281 -5.1640625 25.05664062 C-9.57371287 31.71580858 -9.57371287 31.71580858 -13 34 C-14.90112305 34.31884766 -14.90112305 34.31884766 -17.01171875 34.4140625 C-18.14770508 34.47207031 -18.14770508 34.47207031 -19.30664062 34.53125 C-20.09232422 34.5621875 -20.87800781 34.593125 -21.6875 34.625 C-22.88342773 34.68300781 -22.88342773 34.68300781 -24.10351562 34.7421875 C-26.06863475 34.83632494 -28.0342854 34.91924632 -30 35 C-29.37781112 31.97445409 -28.39457837 29.71841585 -26.77734375 27.09375 C-26.32496338 26.35511719 -25.87258301 25.61648437 -25.40649414 24.85546875 C-24.92172607 24.07816406 -24.43695801 23.30085938 -23.9375 22.5 C-23.44306396 21.70207031 -22.94862793 20.90414062 -22.43920898 20.08203125 C-20.96714658 17.71644626 -19.48509349 15.35742051 -18 13 C-17.59168945 12.34644531 -17.18337891 11.69289062 -16.76269531 11.01953125 C-15.70807151 9.33869608 -14.63593359 7.66888542 -13.5625 6 C-12.66724609 4.6078125 -12.66724609 4.6078125 -11.75390625 3.1875 C-8.30040638 -1.11976042 -5.22048696 -1.63140217 0 0 Z " fill="#63BFAA" transform="translate(299,152)"/>
<path d="M0 0 C4.24134374 1.00769514 6.38148988 4.25874204 8.64648438 7.74511719 C10.18252218 10.32973796 11.63924219 12.94608241 13.078125 15.5859375 C13.58859375 16.48376953 14.0990625 17.38160156 14.625 18.30664062 C15.10195312 19.17353516 15.57890625 20.04042969 16.0703125 20.93359375 C16.50456543 21.71871338 16.93881836 22.50383301 17.38623047 23.31274414 C18.34664069 25.911822 18.17774209 26.96925714 17.203125 29.5234375 C16.26707824 31.37915702 15.28365398 33.2113957 14.265625 35.0234375 C12.51084129 38.16221525 10.78094632 41.2915716 9.203125 44.5234375 C6.94302707 40.59667518 4.6959547 36.66276306 2.45751953 32.72363281 C1.59485918 31.21053529 0.72843302 29.69958052 -0.14111328 28.19042969 C-1.51413655 25.80624263 -2.87504147 23.41545064 -4.234375 21.0234375 C-4.67120605 20.27078613 -5.10803711 19.51813477 -5.55810547 18.74267578 C-7.84264401 14.69482398 -9.56549025 11.27033067 -9.796875 6.5234375 C-7.1304411 1.06936817 -6.01106048 0.4359166 0 0 Z " fill="#EF1279" transform="translate(231.796875,136.4765625)"/>
<path d="M0 0 C0.33 0 0.66 0 1 0 C1.20625 0.94875 1.4125 1.8975 1.625 2.875 C2.83127232 7.31300188 5.3210981 10.74797597 7.953125 14.47265625 C9 17 9 17 8.51171875 19.66796875 C6.40264394 24.31665303 4.03076378 28.78331143 1.5625 33.25 C1.07201172 34.16007812 0.58152344 35.07015625 0.07617188 36.0078125 C-0.40142578 36.87664062 -0.87902344 37.74546875 -1.37109375 38.640625 C-2.0196936 39.82446777 -2.0196936 39.82446777 -2.68139648 41.03222656 C-4 43 -4 43 -7 45 C-10.92257996 45.42791781 -13.10751408 45.63413473 -16.375 43.3125 C-18.25892581 40.63152866 -18.77172116 39.26895301 -19 36 C-18.02994446 33.48204718 -17.02186596 31.29447094 -15.75 28.9375 C-15.22212891 27.92139648 -15.22212891 27.92139648 -14.68359375 26.88476562 C-13.47554906 24.57868718 -12.24153428 22.2882192 -11 20 C-10.51724609 19.10941895 -10.03449219 18.21883789 -9.53710938 17.30126953 C-6.39053218 11.51605106 -3.20907062 5.75076815 0 0 Z " fill="#62589F" transform="translate(241,232)"/>
<path d="M0 0 C2.97 0 5.94 0 9 0 C10 1 10 1 10.11352539 3.50024414 C10.10828857 4.58426514 10.10305176 5.66828613 10.09765625 6.78515625 C10.09443359 7.95498047 10.09121094 9.12480469 10.08789062 10.33007812 C10.07951172 11.56177734 10.07113281 12.79347656 10.0625 14.0625 C10.05798828 15.29806641 10.05347656 16.53363281 10.04882812 17.80664062 C10.03699618 20.87111413 10.01906008 23.93556293 10 27 C14.95 27.33 19.9 27.66 25 28 C25 30.64 25 33.28 25 36 C16.75 36 8.5 36 0 36 C0 24.12 0 12.24 0 0 Z " fill="#25275F" transform="translate(168,296)"/>
<path d="M0 0 C3.17625 -0.061875 6.3525 -0.12375 9.625 -0.1875 C11.1092749 -0.22846802 11.1092749 -0.22846802 12.62353516 -0.27026367 C18.72422649 -0.32760795 23.10257777 0.4023111 27.8125 4.625 C29.64812667 8.29625334 30.14838625 11.90877913 30 16 C28.5625 19.5625 28.5625 19.5625 27 22 C25.768606 18.30581799 26.35567236 15.7943739 27 12 C25.35 12.33 23.7 12.66 22 13 C21.67 14.32 21.34 15.64 21 17 C19.35 17.33 17.7 17.66 16 18 C17.32 16.68 18.64 15.36 20 14 C19.34 12.35 18.68 10.7 18 9 C15.03 8.67 12.06 8.34 9 8 C9 7.67 9 7.34 9 7 C12.63 7 16.26 7 20 7 C20 7.66 20 8.32 20 9 C20.66 9 21.32 9 22 9 C23.01111093 5.95086772 23.01111093 5.95086772 22 3 C15.104876 1.6209752 8.01798074 1.4386238 1 1 C1 12.55 1 24.1 1 36 C0.67 36 0.34 36 0 36 C0 24.12 0 12.24 0 0 Z " fill="#272859" transform="translate(383,296)"/>
<path d="M0 0 C4.01197476 1.47336315 5.42019176 4.83336951 7.3671875 8.44921875 C7.66367187 9.23554688 7.96015625 10.021875 8.265625 10.83203125 C7.935625 11.49203125 7.605625 12.15203125 7.265625 12.83203125 C6.605625 12.50203125 5.945625 12.17203125 5.265625 11.83203125 C5.265625 10.84203125 5.265625 9.85203125 5.265625 8.83203125 C1.33486856 9.40655871 1.33486856 9.40655871 -1.734375 11.83203125 C-1.734375 10.84203125 -1.734375 9.85203125 -1.734375 8.83203125 C-2.394375 8.83203125 -3.054375 8.83203125 -3.734375 8.83203125 C-4.064375 9.82203125 -4.394375 10.81203125 -4.734375 11.83203125 C-5.724375 12.16203125 -6.714375 12.49203125 -7.734375 12.83203125 C-7.404375 13.82203125 -7.074375 14.81203125 -6.734375 15.83203125 C-5.744375 16.16203125 -4.754375 16.49203125 -3.734375 16.83203125 C-3.734375 18.48203125 -3.734375 20.13203125 -3.734375 21.83203125 C-10.45974553 13.71520475 -10.45974553 13.71520475 -11.171875 8.83203125 C-10.19020369 2.10057083 -6.51077268 -0.29104447 0 0 Z " fill="#EB1776" transform="translate(275.734375,211.16796875)"/>
<path d="M0 0 C0.99 0 1.98 0 3 0 C3.66 1.65 4.32 3.3 5 5 C5.66 3.35 6.32 1.7 7 0 C7.99 0 8.98 0 10 0 C10.66 1.65 11.32 3.3 12 5 C12.66 3.35 13.32 1.7 14 0 C14.99 0 15.98 0 17 0 C16.01 3.63 15.02 7.26 14 11 C13.01 11 12.02 11 11 11 C9.3125 9 9.3125 9 8 7 C7.34 8.32 6.68 9.64 6 11 C5.01 11 4.02 11 3 11 C2.01 7.37 1.02 3.74 0 0 Z " fill="#2E3059" transform="translate(352,349)"/>
<path d="M0 0 C0.66 0 1.32 0 2 0 C2.66 1.98 3.32 3.96 4 6 C4.66 6 5.32 6 6 6 C6 6.99 6 7.98 6 9 C6.66 9.33 7.32 9.66 8 10 C8 10.99 8 11.98 8 13 C10.97 13.495 10.97 13.495 14 14 C14 14.66 14 15.32 14 16 C15.65 16 17.3 16 19 16 C17.68 19.3 16.36 22.6 15 26 C12.27569077 23.27569077 10.8843597 21.258852 9.08203125 17.9296875 C8.55029297 16.95128906 8.01855469 15.97289062 7.47070312 14.96484375 C6.92349609 13.94519531 6.37628906 12.92554688 5.8125 11.875 C5.25369141 10.84761719 4.69488281 9.82023438 4.11914062 8.76171875 C0 1.14709249 0 1.14709249 0 0 Z " fill="#DE2170" transform="translate(227,155)"/>
<path d="M0 0 C2.97 0 5.94 0 9 0 C9 1.98 9 3.96 9 6 C6.69 6.66 4.38 7.32 2 8 C1.67 16.58 1.34 25.16 1 34 C0.67 34 0.34 34 0 34 C0 22.78 0 11.56 0 0 Z " fill="#141754" transform="translate(168,296)"/>
<path d="M0 0 C3 2.375 3 2.375 5 5 C5 5.66 5 6.32 5 7 C4.01 7.33 3.02 7.66 2 8 C1.67 6.02 1.34 4.04 1 2 C0.01 2 -0.98 2 -2 2 C-2.33 2.99 -2.66 3.98 -3 5 C-3.66 5 -4.32 5 -5 5 C-6.62514468 6.45833358 -6.62514468 6.45833358 -8 8 C-8.33 7.01 -8.66 6.02 -9 5 C-9.33 6.98 -9.66 8.96 -10 11 C-9.34 11 -8.68 11 -8 11 C-7.67 12.98 -7.34 14.96 -7 17 C-9.74089824 14.63286061 -11.02493482 12.49398354 -12 9 C-11.81651312 5.94188535 -11.4494076 3.79307223 -9.9375 1.125 C-6.74384604 -0.72937972 -3.52102488 -0.75352673 0 0 Z " fill="#DB1F75" transform="translate(234,137)"/>
<path d="M0 0 C1.94579956 0.032146 1.94579956 0.032146 3.9309082 0.06494141 C7.70549884 0.13787808 11.47685434 0.24879746 15.25 0.375 C16.23597168 0.40400391 17.22194336 0.43300781 18.23779297 0.46289062 C31.76945868 0.89445868 31.76945868 0.89445868 34.25 3.375 C32.25 4.375 32.25 4.375 30.25 3.9375 C26.63297752 3.25930828 23.22383062 3.34828071 19.5546875 3.4375 C17.25 3.375 17.25 3.375 14.25 2.375 C12.72873574 2.28238915 11.20376663 2.24431823 9.6796875 2.2421875 C8.7825 2.24089844 7.8853125 2.23960937 6.9609375 2.23828125 C5.55714844 2.24408203 5.55714844 2.24408203 4.125 2.25 C2.75601563 2.24419922 2.75601563 2.24419922 1.359375 2.23828125 C-4.42197305 2.24651679 -10.01581621 2.63624013 -15.75 3.375 C-16.41 5.025 -17.07 6.675 -17.75 8.375 C-18.08 7.385 -18.41 6.395 -18.75 5.375 C-14.16308151 -1.54906268 -7.63023312 -0.22883458 0 0 Z " fill="#71B5AB" transform="translate(196.75,184.625)"/>
<path d="M0 0 C0.66 1.32 1.32 2.64 2 4 C-0.31 3.67 -2.62 3.34 -5 3 C-5.33 4.32 -5.66 5.64 -6 7 C-5.34 7 -4.68 7 -4 7 C-4 6.34 -4 5.68 -4 5 C-2.02 5 -0.04 5 2 5 C1.6875 7.375 1.6875 7.375 1 10 C-2 12 -2 12 -4.5625 11.75 C-7 11 -7 11 -9 9 C-9.33015665 5.89652746 -9.50531294 3.84218824 -7.875 1.125 C-5.21965017 -0.4682099 -3.03210482 -0.20214032 0 0 Z " fill="#323557" transform="translate(318,349)"/>
<path d="M0 0 C3.17625 -0.061875 6.3525 -0.12375 9.625 -0.1875 C11.1092749 -0.22846802 11.1092749 -0.22846802 12.62353516 -0.27026367 C17.83192382 -0.31922063 21.53289597 0.00308211 26 3 C27.875 5.6875 27.875 5.6875 29 8 C25.63061102 6.87687034 24.46825907 5.46825907 22 3 C15.104876 1.6209752 8.01798074 1.4386238 1 1 C1 12.55 1 24.1 1 36 C0.67 36 0.34 36 0 36 C0 24.12 0 12.24 0 0 Z " fill="#161651" transform="translate(383,296)"/>
<path d="M0 0 C0.66 1.32 1.32 2.64 2 4 C0.68 4.33 -0.64 4.66 -2 5 C-1.67 5.66 -1.34 6.32 -1 7 C-0.01 6.67 0.98 6.34 2 6 C3.08174162 9.36541838 2.92538169 10.29847322 2 14 C7.61 14 13.22 14 19 14 C16.24125965 16.75874035 14.53323529 16.29943408 10.6875 16.3125 C9.55699219 16.32925781 8.42648438 16.34601563 7.26171875 16.36328125 C3.67884772 15.96423094 1.85670146 15.15895845 -1 13 C-3.32579101 9.51131349 -3.41865457 8.10281481 -3 4 C-1.5 1.625 -1.5 1.625 0 0 Z " fill="#F0B52B" transform="translate(181,213)"/>
<path d="M0 0 C3.125 0.25 3.125 0.25 5 1.375 C6.67163625 4.16106042 6.58876624 6.06988862 6.125 9.25 C4.4375 11.1875 4.4375 11.1875 2.125 12.25 C-1.04958523 12.17257109 -2.41722105 11.6487107 -4.8125 9.5625 C-5.875 7.25 -5.875 7.25 -5.125 4.0625 C-3.45288945 0.30025126 -3.45288945 0.30025126 0 0 Z M-0.875 2.25 C-1.535 2.91 -2.195 3.57 -2.875 4.25 C-2.55458603 6.85280568 -2.55458603 6.85280568 -1.875 9.25 C-0.225 8.92 1.425 8.59 3.125 8.25 C3.8064823 6.35820797 3.8064823 6.35820797 4.125 4.25 C3.465 3.59 2.805 2.93 2.125 2.25 C1.135 2.25 0.145 2.25 -0.875 2.25 Z " fill="#313455" transform="translate(342.875,348.75)"/>
<path d="M0 0 C1.2065625 0.0309375 1.2065625 0.0309375 2.4375 0.0625 C3.0975 1.3825 3.7575 2.7025 4.4375 4.0625 C3.4475 4.0625 2.4575 4.0625 1.4375 4.0625 C1.4375 3.4025 1.4375 2.7425 1.4375 2.0625 C0.4475 2.0625 -0.5425 2.0625 -1.5625 2.0625 C-1.5625 2.7225 -1.5625 3.3825 -1.5625 4.0625 C0.4175 4.7225 2.3975 5.3825 4.4375 6.0625 C4.1075 7.7125 3.7775 9.3625 3.4375 11.0625 C1.125 11.6875 1.125 11.6875 -1.5625 12.0625 C-2.5525 11.4025 -3.5425 10.7425 -4.5625 10.0625 C-4.5625 9.0725 -4.5625 8.0825 -4.5625 7.0625 C-3.5725 7.0625 -2.5825 7.0625 -1.5625 7.0625 C-2.5525 6.4025 -3.5425 5.7425 -4.5625 5.0625 C-3.43829114 0.08386076 -3.43829114 0.08386076 0 0 Z " fill="#31365B" transform="translate(195.5625,348.9375)"/>
<path d="M0 0 C1.4540625 0.0309375 1.4540625 0.0309375 2.9375 0.0625 C3.2675 1.3825 3.5975 2.7025 3.9375 4.0625 C1.9575 3.4025 -0.0225 2.7425 -2.0625 2.0625 C-2.0625 2.7225 -2.0625 3.3825 -2.0625 4.0625 C-0.0825 4.7225 1.8975 5.3825 3.9375 6.0625 C3.9375 7.7125 3.9375 9.3625 3.9375 11.0625 C-1.42175197 12.37253937 -1.42175197 12.37253937 -4 11.125 C-5.77121884 7.68675167 -4.78591462 4.80014221 -4.0625 1.0625 C-3.0625 0.0625 -3.0625 0.0625 0 0 Z M-2.0625 7.0625 C-2.0625 7.7225 -2.0625 8.3825 -2.0625 9.0625 C-0.7425 8.7325 0.5775 8.4025 1.9375 8.0625 C0.6175 7.7325 -0.7025 7.4025 -2.0625 7.0625 Z " fill="#303458" transform="translate(183.0625,348.9375)"/>
<path d="M0 0 C1.4540625 0.0309375 1.4540625 0.0309375 2.9375 0.0625 C3.5975 1.3825 4.2575 2.7025 4.9375 4.0625 C3.9475 4.0625 2.9575 4.0625 1.9375 4.0625 C1.9375 3.4025 1.9375 2.7425 1.9375 2.0625 C0.9475 2.0625 -0.0425 2.0625 -1.0625 2.0625 C-1.0625 2.7225 -1.0625 3.3825 -1.0625 4.0625 C-0.258125 4.31 0.54625 4.5575 1.375 4.8125 C3.9375 6.0625 3.9375 6.0625 4.75 8.1875 C4.811875 8.80625 4.87375 9.425 4.9375 10.0625 C1.9375 12.0625 1.9375 12.0625 -0.75 11.6875 C-1.513125 11.48125 -2.27625 11.275 -3.0625 11.0625 C-3.3925 9.7425 -3.7225 8.4225 -4.0625 7.0625 C-2.0825 7.7225 -0.1025 8.3825 1.9375 9.0625 C1.9375 8.4025 1.9375 7.7425 1.9375 7.0625 C0.2875 6.7325 -1.3625 6.4025 -3.0625 6.0625 C-3.44468767 4.40635343 -3.77645102 2.73792976 -4.0625 1.0625 C-3.0625 0.0625 -3.0625 0.0625 0 0 Z " fill="#2E325A" transform="translate(136.0625,348.9375)"/>
<path d="M0 0 C1.2065625 0.0309375 1.2065625 0.0309375 2.4375 0.0625 C3.0975 1.3825 3.7575 2.7025 4.4375 4.0625 C3.4475 4.0625 2.4575 4.0625 1.4375 4.0625 C1.4375 3.4025 1.4375 2.7425 1.4375 2.0625 C0.4475 2.0625 -0.5425 2.0625 -1.5625 2.0625 C-1.5625 2.7225 -1.5625 3.3825 -1.5625 4.0625 C0.4175 4.7225 2.3975 5.3825 4.4375 6.0625 C4.1075 7.7125 3.7775 9.3625 3.4375 11.0625 C1.125 11.6875 1.125 11.6875 -1.5625 12.0625 C-2.5525 11.4025 -3.5425 10.7425 -4.5625 10.0625 C-4.5625 9.0725 -4.5625 8.0825 -4.5625 7.0625 C-3.5725 7.0625 -2.5825 7.0625 -1.5625 7.0625 C-2.5525 6.4025 -3.5425 5.7425 -4.5625 5.0625 C-3.43829114 0.08386076 -3.43829114 0.08386076 0 0 Z " fill="#313457" transform="translate(229.5625,348.9375)"/>
<path d="M0 0 C1.98 0 3.96 0 6 0 C6.33 1.32 6.66 2.64 7 4 C5.68 4 4.36 4 3 4 C3.639375 4.268125 4.27875 4.53625 4.9375 4.8125 C7 6 7 6 8 9 C6.8125 10.5625 6.8125 10.5625 5 12 C2.3125 11.6875 2.3125 11.6875 0 11 C-0.33 9.68 -0.66 8.36 -1 7 C-0.34 7 0.32 7 1 7 C1 7.66 1 8.32 1 9 C1.99 8.67 2.98 8.34 4 8 C2.35 7.01 0.7 6.02 -1 5 C-0.67 3.35 -0.34 1.7 0 0 Z " fill="#34375B" transform="translate(276,349)"/>
<path d="M0 0 C0.99 0 1.98 0 3 0 C3 2.97 3 5.94 3 9 C4.32 9 5.64 9 7 9 C7 6.03 7 3.06 7 0 C7.99 0 8.98 0 10 0 C10.30769231 8 10.30769231 8 8 11 C6.125 12 6.125 12 4 12 C1.75 10.5625 1.75 10.5625 0 8 C-0.33634042 5.24095746 -0.18646242 2.79693623 0 0 Z " fill="#2E2F56" transform="translate(118,349)"/>
<path d="M0 0 C12.21 0 24.42 0 37 0 C37 0.33 37 0.66 37 1 C27.43 1 17.86 1 8 1 C8 1.66 8 2.32 8 3 C7.01 3.495 7.01 3.495 6 4 C6 5.98 6 7.96 6 10 C3.38275905 7.63202009 1.67138271 5.10399646 0 2 C0 1.34 0 0.68 0 0 Z " fill="#F4AA39" transform="translate(278,212)"/>
<path d="M0 0 C3.39914975 1.13304992 4.05254451 2.12518475 6 5 C6.33 3.35 6.66 1.7 7 0 C7.66 0 8.32 0 9 0 C9 3.63 9 7.26 9 11 C5 10 5 10 3 7 C2.67 8.32 2.34 9.64 2 11 C1.34 11 0.68 11 0 11 C0 7.37 0 3.74 0 0 Z " fill="#35385D" transform="translate(153,349)"/>
<path d="M0 0 C2.875 -0.125 2.875 -0.125 6 0 C8 2 8 2 8.23046875 3.91015625 C8.11111111 9.88888889 8.11111111 9.88888889 7 11 C4.66702567 11.04092937 2.33294775 11.04241723 0 11 C0 7.37 0 3.74 0 0 Z M2 2 C2 2.99 2 3.98 2 5 C3.32 4.34 4.64 3.68 6 3 C4.68 2.67 3.36 2.34 2 2 Z M2 7 C2 7.66 2 8.32 2 9 C3.32 9 4.64 9 6 9 C6 8.34 6 7.68 6 7 C4.68 7 3.36 7 2 7 Z " fill="#30355C" transform="translate(106,349)"/>
<path d="M0 0 C2.33294775 -0.04241723 4.66702567 -0.04092937 7 0 C8 1 8 1 8.0625 3.8125 C8.041875 4.864375 8.02125 5.91625 8 7 C8 8.32 8 9.64 8 11 C5 11 5 11 3.3125 9.5 C2.879375 9.005 2.44625 8.51 2 8 C2 8.99 2 9.98 2 11 C1.34 11 0.68 11 0 11 C0 7.37 0 3.74 0 0 Z M2 2 C2 2.99 2 3.98 2 5 C3.32 5 4.64 5 6 5 C5.67 4.01 5.34 3.02 5 2 C4.01 2 3.02 2 2 2 Z " fill="#343657" transform="translate(325,349)"/>
<path d="M0 0 C0.99 0 1.98 0 3 0 C3 1.65 3 3.3 3 5 C4.32 5 5.64 5 7 5 C7 3.35 7 1.7 7 0 C7.66 0 8.32 0 9 0 C9 3.63 9 7.26 9 11 C8.34 11 7.68 11 7 11 C7 9.68 7 8.36 7 7 C5.68 7 4.36 7 3 7 C3 8.32 3 9.64 3 11 C2.01 11 1.02 11 0 11 C0 7.37 0 3.74 0 0 Z " fill="#2B3056" transform="translate(385,349)"/>
<path d="M0 0 C2.64 0 5.28 0 8 0 C8 11.88 8 23.76 8 36 C7.67 36 7.34 36 7 36 C6.97494385 35.24904053 6.9498877 34.49808105 6.92407227 33.72436523 C6.80745058 30.29526467 6.68502583 26.86639447 6.5625 23.4375 C6.52318359 22.25607422 6.48386719 21.07464844 6.44335938 19.85742188 C6.21418693 12.79544941 6.21418693 12.79544941 5.40234375 5.78515625 C5 3 5 3 6 1 C5.401875 1.350625 4.80375 1.70125 4.1875 2.0625 C2 3 2 3 -1 2 C-0.67 1.34 -0.34 0.68 0 0 Z " fill="#2D2C54" transform="translate(455,296)"/>
<path d="M0 0 C2.64 0 5.28 0 8 0 C8 0.66 8 1.32 8 2 C6.35 2 4.7 2 3 2 C3 2.99 3 3.98 3 5 C4.32 5 5.64 5 7 5 C7 5.66 7 6.32 7 7 C5.68 7 4.36 7 3 7 C3 7.66 3 8.32 3 9 C4.65 9 6.3 9 8 9 C8 9.66 8 10.32 8 11 C5.36 11 2.72 11 0 11 C0 7.37 0 3.74 0 0 Z " fill="#31335B" transform="translate(263,349)"/>
<path d="M0 0 C0.99 0 1.98 0 3 0 C3.67119549 1.4562545 4.33681807 2.91507867 5 4.375 C5.556875 5.59316406 5.556875 5.59316406 6.125 6.8359375 C7 9 7 9 7 11 C6.01 11 5.02 11 4 11 C4 10.34 4 9.68 4 9 C2.35 9 0.7 9 -1 9 C-1 9.66 -1 10.32 -1 11 C-1.99 10.67 -2.98 10.34 -4 10 C-2.68 6.7 -1.36 3.4 0 0 Z M1 4 C1 4.99 1 5.98 1 7 C1.66 6.67 2.32 6.34 3 6 C2.34 5.34 1.68 4.68 1 4 Z " fill="#31335B" transform="translate(241,349)"/>
<path d="M0 0 C0.33 0.66 0.66 1.32 1 2 C-0.20850753 5.07620099 -1.52221785 8.0444357 -3 11 C-1.68 11 -0.36 11 1 11 C1 12.98 1 14.96 1 17 C0.34 17 -0.32 17 -1 17 C-1.6496875 16.0409375 -1.6496875 16.0409375 -2.3125 15.0625 C-4.40849852 12.50072404 -5.78299472 12.34778436 -9 12 C-8.60167969 11.55269531 -8.20335937 11.10539063 -7.79296875 10.64453125 C-4.82015875 7.25220061 -2.1717806 3.98159776 0 0 Z " fill="#E92169" transform="translate(219,217)"/>
<path d="M0 0 C2.31 0 4.62 0 7 0 C7 0.66 7 1.32 7 2 C5.35 2 3.7 2 2 2 C2 2.99 2 3.98 2 5 C3.65 5 5.3 5 7 5 C7 5.66 7 6.32 7 7 C5.35 7 3.7 7 2 7 C2 7.66 2 8.32 2 9 C3.98 9 5.96 9 8 9 C8 9.66 8 10.32 8 11 C5.36 11 2.72 11 0 11 C0 7.37 0 3.74 0 0 Z " fill="#32355C" transform="translate(167,349)"/>
<path d="M0 0 C0.598125 0.20625 1.19625 0.4125 1.8125 0.625 C1.8125 1.285 1.8125 1.945 1.8125 2.625 C3.1325 2.955 4.4525 3.285 5.8125 3.625 C5.1525 4.285 4.4925 4.945 3.8125 5.625 C2.8225 5.625 1.8325 5.625 0.8125 5.625 C0.4825 6.285 0.1525 6.945 -0.1875 7.625 C-2.6875 6.3125 -2.6875 6.3125 -5.1875 4.625 C-5.1875 3.635 -5.1875 2.645 -5.1875 1.625 C-2.1875 -0.375 -2.1875 -0.375 0 0 Z " fill="#2A2A62" transform="translate(444.1875,315.375)"/>
<path d="M0 0 C2.97 0 5.94 0 9 0 C9 0.66 9 1.32 9 2 C8.01 2 7.02 2 6 2 C6 4.97 6 7.94 6 11 C5.01 11 4.02 11 3 11 C3 8.03 3 5.06 3 2 C2.01 2 1.02 2 0 2 C0 1.34 0 0.68 0 0 Z " fill="#2D3257" transform="translate(372,349)"/>
<path d="M0 0 C0.66 1.32 1.32 2.64 2 4 C0.38405168 6.04119788 -1.2856382 8.04072937 -3 10 C-3.66 10 -4.32 10 -5 10 C-6.34261242 3.53104925 -6.34261242 3.53104925 -4.75 1.0625 C-3 0 -3 0 0 0 Z " fill="#F01178" transform="translate(227,213)"/>
<path d="M0 0 C0.144375 0.61875 0.28875 1.2375 0.4375 1.875 C0.93152225 4.03258322 0.93152225 4.03258322 2 6 C4.58605332 6.4683265 4.58605332 6.4683265 7.5625 6.625 C8.57441406 6.69976562 9.58632813 6.77453125 10.62890625 6.8515625 C11.80259766 6.92503906 11.80259766 6.92503906 13 7 C13 7.33 13 7.66 13 8 C4.585 8.495 4.585 8.495 -4 9 C-3.08541782 5.34167128 -1.99523834 3.12298174 0 0 Z " fill="#6FB4B2" transform="translate(273,178)"/>
<path d="M0 0 C1.0326802 2.78823655 1.04509293 3.8677274 0.0625 6.75 C-0.288125 7.4925 -0.63875 8.235 -1 9 C-0.01 9.33 0.98 9.66 2 10 C3.203125 12.21484375 3.203125 12.21484375 4.25 14.9375 C4.78367188 16.28134766 4.78367188 16.28134766 5.328125 17.65234375 C6 20 6 20 5 22 C-3.19912152 9.26207906 -3.19912152 9.26207906 -2 3 C-1.34 2.01 -0.68 1.02 0 0 Z " fill="#72ADB6" transform="translate(244,227)"/>
<path d="M0 0 C0.66 0.33 1.32 0.66 2 1 C2.97956341 4.91825366 3.38690304 7.15249811 1.6875 10.875 C0 13 0 13 -2 14 C-4.3329866 14.04022391 -6.66706666 14.04320247 -9 14 C-9 13.67 -9 13.34 -9 13 C-7.02 13 -5.04 13 -3 13 C-1.32889958 10.03821227 -0.67317248 7.62928808 -0.375 4.25 C-0.30023438 3.45078125 -0.22546875 2.6515625 -0.1484375 1.828125 C-0.09945313 1.22484375 -0.05046875 0.6215625 0 0 Z " fill="#D52571" transform="translate(300,248)"/>
<path d="M0 0 C1.32 0.66 2.64 1.32 4 2 C2.02 2.99 2.02 2.99 0 4 C0.33 7.3 0.66 10.6 1 14 C0.01 13.67 -0.98 13.34 -2 13 C-3.52846661 9.94306678 -3.23242445 7.37015453 -3 4 C-1.5 1.5625 -1.5 1.5625 0 0 Z " fill="#5F5B8F" transform="translate(268,186)"/>
<path d="M0 0 C0.99 0 1.98 0 3 0 C3 3.63 3 7.26 3 11 C2.01 11 1.02 11 0 11 C0 7.37 0 3.74 0 0 Z " fill="#2F3159" transform="translate(145,349)"/>
<path d="M0 0 C2.97 0.495 2.97 0.495 6 1 C6 3.97 6 6.94 6 10 C5.01 9.67 4.02 9.34 3 9 C3 7.35 3 5.7 3 4 C2.34 3.67 1.68 3.34 1 3 C1 3.66 1 4.32 1 5 C0.34 4.67 -0.32 4.34 -1 4 C-0.67 2.68 -0.34 1.36 0 0 Z " fill="#2A2B63" transform="translate(339,307)"/>
<path d="M0 0 C0.66 0 1.32 0 2 0 C2 2.97 2 5.94 2 9 C3.65 9 5.3 9 7 9 C7 9.66 7 10.32 7 11 C4.69 11 2.38 11 0 11 C0 7.37 0 3.74 0 0 Z " fill="#33345B" transform="translate(252,349)"/>
<path d="M0 0 C0.66 0 1.32 0 2 0 C2.32613281 0.61488281 2.65226563 1.22976562 2.98828125 1.86328125 C3.42527344 2.67152344 3.86226562 3.47976562 4.3125 4.3125 C4.74175781 5.11300781 5.17101562 5.91351563 5.61328125 6.73828125 C6.9078597 8.84972047 8.22303997 10.30201597 10 12 C11.1875 14.1875 11.1875 14.1875 12 16 C10.265625 15.90234375 10.265625 15.90234375 8 15 C6.40730442 12.86381158 5.07283413 10.8529628 3.75 8.5625 C3.38648438 7.96373047 3.02296875 7.36496094 2.6484375 6.74804688 C0 2.30245536 0 2.30245536 0 0 Z " fill="#5F5990" transform="translate(202,169)"/>
<path d="M0 0 C0.33 1.32 0.66 2.64 1 4 C0.34 4 -0.32 4 -1 4 C-1.33 7.63 -1.66 11.26 -2 15 C-2.99 14.01 -3.98 13.02 -5 12 C-4.54738642 10.56068883 -4.08767021 9.12361001 -3.625 7.6875 C-3.24214844 6.48673828 -3.24214844 6.48673828 -2.8515625 5.26171875 C-2 3 -2 3 0 0 Z " fill="#F89D41" transform="translate(246,170)"/>
<path d="M0 0 C0.66 0 1.32 0 2 0 C2 4.95 2 9.9 2 15 C1.34 15 0.68 15 0 15 C0 10.05 0 5.1 0 0 Z " fill="#3A3D5F" transform="translate(212,348)"/>
<path d="M0 0 C0.66 0 1.32 0 2 0 C2 4.95 2 9.9 2 15 C1.34 15 0.68 15 0 15 C0 10.05 0 5.1 0 0 Z " fill="#393B55" transform="translate(295,348)"/>
<path d="M0 0 C5.22576133 0.31671281 8.63673063 3.21065608 12 7 C12.9375 9.875 12.9375 9.875 13 12 C12.34 12 11.68 12 11 12 C10.6596875 10.8553125 10.6596875 10.8553125 10.3125 9.6875 C8.72697825 6.44095547 7.09785421 5.71197206 4 4 C4 3.34 4 2.68 4 2 C2.68 1.67 1.36 1.34 0 1 C0 0.67 0 0.34 0 0 Z " fill="#272A4E" transform="translate(298,297)"/>
<path d="M0 0 C1 3 1 3 0.0625 5.1875 C-0.4634375 6.0846875 -0.4634375 6.0846875 -1 7 C-0.01 7.33 0.98 7.66 2 8 C-0.31 8.66 -2.62 9.32 -5 10 C-5 10.99 -5 11.98 -5 13 C-5.66 13 -6.32 13 -7 13 C-5.35821735 8.22390502 -2.73453298 4.20617096 0 0 Z " fill="#D82373" transform="translate(210,230)"/>
<path d="M0 0 C1.64767247 0.28109113 3.29313145 0.57518526 4.9375 0.875 C5.85402344 1.03742188 6.77054688 1.19984375 7.71484375 1.3671875 C8.46894531 1.57601562 9.22304687 1.78484375 10 2 C10.33 2.66 10.66 3.32 11 4 C9.35 4.33 7.7 4.66 6 5 C5.67 4.01 5.34 3.02 5 2 C4.21625 2.474375 3.4325 2.94875 2.625 3.4375 C1.11051322 4.33898023 -0.4235897 5.21179485 -2 6 C-1.34 4.02 -0.68 2.04 0 0 Z " fill="#E32264" transform="translate(222,211)"/>
<path d="M0 0 C2 3 2 3 2.9375 6.625 C3.288125 7.73875 3.63875 8.8525 4 10 C4.99 10.33 5.98 10.66 7 11 C7 12.65 7 14.3 7 16 C-0.48594675 6.96523669 -0.48594675 6.96523669 0 0 Z " fill="#CE2D73" transform="translate(265,217)"/>
<path d="M0 0 C3 1 3 1 4.38671875 3.50390625 C4.81597656 4.51324219 5.24523437 5.52257812 5.6875 6.5625 C6.12449219 7.57441406 6.56148438 8.58632812 7.01171875 9.62890625 C7.33785156 10.41136719 7.66398437 11.19382813 8 12 C7.01 11.67 6.02 11.34 5 11 C5 10.01 5 9.02 5 8 C4.34 8 3.68 8 3 8 C0.95830515 5.09451118 0 3.59857954 0 0 Z " fill="#6BB7A5" transform="translate(262,242)"/>
<path d="M0 0 C1 3 1 3 0.07421875 5.4453125 C-0.38339844 6.32960938 -0.84101563 7.21390625 -1.3125 8.125 C-1.98732422 9.45917969 -1.98732422 9.45917969 -2.67578125 10.8203125 C-4 13 -4 13 -6 14 C-5.41892368 10.2397015 -4.34800504 7.46964968 -2.4375 4.1875 C-1.98246094 3.39730469 -1.52742187 2.60710937 -1.05859375 1.79296875 C-0.53458984 0.90544922 -0.53458984 0.90544922 0 0 Z " fill="#5E548D" transform="translate(229,254)"/>
<path d="M0 0 C2.4375 0.75 2.4375 0.75 5 2 C5.75 4.0625 5.75 4.0625 6 6 C6.33 6.33 6.66 6.66 7 7 C7.04063832 8.66617115 7.042721 10.33388095 7 12 C0 3.55172414 0 3.55172414 0 0 Z " fill="#D82372" transform="translate(280,245)"/>
<path d="M0 0 C2.61500768 2.36595933 4.38999603 4.86049226 6 8 C5.67 8.66 5.34 9.32 5 10 C4.34 9.67 3.68 9.34 3 9 C3 8.01 3 7.02 3 6 C2.01 6.33 1.02 6.66 0 7 C-1.33332095 4.3333581 -0.67102033 2.83319697 0 0 Z " fill="#E72464" transform="translate(278,214)"/>
<path d="M0 0 C0.99 0 1.98 0 3 0 C1.6062718 4.43458973 -0.60582235 6.87378374 -4 10 C-4.66 9.01 -5.32 8.02 -6 7 C-4.68 7 -3.36 7 -2 7 C-1.34 4.69 -0.68 2.38 0 0 Z " fill="#FEA03A" transform="translate(215,218)"/>
<path d="M0 0 C0.66 0 1.32 0 2 0 C2.3125 2.3125 2.3125 2.3125 2 5 C-0.5 6.8125 -0.5 6.8125 -3 8 C-3 7.34 -3 6.68 -3 6 C-3.66 5.67 -4.32 5.34 -5 5 C-4.360625 4.731875 -3.72125 4.46375 -3.0625 4.1875 C-0.66868314 3.11332248 -0.66868314 3.11332248 0 0 Z " fill="#2F3363" transform="translate(347,353)"/>
<path d="M0 0 C0.99 0 1.98 0 3 0 C3 0.66 3 1.32 3 2 C5.97 2.495 5.97 2.495 9 3 C8.34 3.66 7.68 4.32 7 5 C3.875 4.625 3.875 4.625 1 4 C0.67 2.68 0.34 1.36 0 0 Z " fill="#2E304E" transform="translate(178,356)"/>
<path d="M0 0 C1.55544021 4.66632064 -0.48852847 8.46558541 -2 13 C-2.66 13 -3.32 13 -4 13 C-3.40895235 8.15340923 -2.02055843 4.39251833 0 0 Z " fill="#27274D" transform="translate(239,317)"/>
<path d="M0 0 C0 4.01474237 -1.66781767 5.81975137 -4 9 C-4.33 9 -4.66 9 -5 9 C-5.3125 6.75 -5.3125 6.75 -5 4 C-2.5 1.6875 -2.5 1.6875 0 0 Z " fill="#D82177" transform="translate(215,251)"/>
<path d="M0 0 C0.99 0 1.98 0 3 0 C1.74194623 4.50802601 0.09592835 7.4912812 -3 11 C-3 9.35 -3 7.7 -3 6 C-2.34 6 -1.68 6 -1 6 C-0.67 4.02 -0.34 2.04 0 0 Z " fill="#ECB42D" transform="translate(260,172)"/>
<path d="M0 0 C0.75 1.625 0.75 1.625 1 4 C-2.136 9.712 -2.136 9.712 -6 11 C-4.54955729 6.89041233 -2.48889248 3.56741255 0 0 Z " fill="#6CB6A4" transform="translate(280,167)"/>
<path d="M0 0 C2.64465038 3.1254959 3.84414715 6.08788267 5 10 C2.525 9.01 2.525 9.01 0 8 C0 5.36 0 2.72 0 0 Z " fill="#D6256E" transform="translate(242,149)"/>
<path d="M0 0 C3.15140423 0.34069235 4.60781561 0.58076841 6.8125 2.9375 C8 5 8 5 8 7 C7.01 7.33 6.02 7.66 5 8 C4.67 6.02 4.34 4.04 4 2 C2.68 1.67 1.36 1.34 0 1 C0 0.67 0 0.34 0 0 Z " fill="#DD2374" transform="translate(231,137)"/>
<path d="M0 0 C0.66 0 1.32 0 2 0 C2 2.3125 2 2.3125 1 5 C-1.55518097 6.38293093 -4.20866129 7.21791649 -7 8 C-7.33 7.34 -7.66 6.68 -8 6 C-7.05125 5.566875 -6.1025 5.13375 -5.125 4.6875 C-1.79958063 3.20697799 -1.79958063 3.20697799 0 0 Z " fill="#292B51" transform="translate(364,318)"/>
<path d="M0 0 C4.67692308 1.47692308 4.67692308 1.47692308 6.3125 4.125 C6.539375 4.74375 6.76625 5.3625 7 6 C4.36 5.34 1.72 4.68 -1 4 C-0.67 2.68 -0.34 1.36 0 0 Z " fill="#262850" transform="translate(58,297)"/>
<path d="M0 0 C2.64 0 5.28 0 8 0 C8 0.99 8 1.98 8 3 C2.25 3.125 2.25 3.125 0 2 C0 1.34 0 0.68 0 0 Z " fill="#2D285F" transform="translate(168,297)"/>
<path d="M0 0 C0.66 0.33 1.32 0.66 2 1 C2.75 4.4375 2.75 4.4375 3 8 C2.34 8.66 1.68 9.32 1 10 C0.87625 9.360625 0.7525 8.72125 0.625 8.0625 C0.315625 7.0415625 0.315625 7.0415625 0 6 C-0.66 5.67 -1.32 5.34 -2 5 C-1.01 4.67 -0.02 4.34 1 4 C0.67 2.68 0.34 1.36 0 0 Z " fill="#69B3A5" transform="translate(232,188)"/>
<path d="M0 0 C0.91058531 3.07322544 1.08886184 5.80097361 1 9 C-0.98 9 -2.96 9 -5 9 C-4.01 8.34 -3.02 7.68 -2 7 C-0.7811879 3.44327821 -0.7811879 3.44327821 0 0 Z " fill="#191A3A" transform="translate(392,323)"/>
<path d="M0 0 C1.32 0.66 2.64 1.32 4 2 C3.01 2.495 3.01 2.495 2 3 C1.34444881 5.52733235 1.34444881 5.52733235 1 8 C-0.32 6.35 -1.64 4.7 -3 3 C-2.01 2.67 -1.02 2.34 0 2 C0 1.34 0 0.68 0 0 Z " fill="#262750" transform="translate(400,320)"/>
<path d="M0 0 C5.75 0.875 5.75 0.875 8 2 C8.33 1.34 8.66 0.68 9 0 C9.66 0.66 10.32 1.32 11 2 C10 3 10 3 6.625 3.25 C3 3 3 3 1.0625 1.5 C0.5365625 0.7575 0.5365625 0.7575 0 0 Z " fill="#DE2374" transform="translate(199,259)"/>
<path d="M0 0 C0.99 0 1.98 0 3 0 C2.34 2.64 1.68 5.28 1 8 C0.34 7.67 -0.32 7.34 -1 7 C-0.67 4.69 -0.34 2.38 0 0 Z " fill="#303355" transform="translate(366,349)"/>
<path d="M0 0 C0.66 0.99 1.32 1.98 2 3 C1.67 3.66 1.34 4.32 1 5 C0.34 5 -0.32 5 -1 5 C-1 5.66 -1 6.32 -1 7 C-1.99 7.33 -2.98 7.66 -4 8 C-2.87548273 5.0280615 -1.77706209 2.66559313 0 0 Z " fill="#DA2274" transform="translate(202,243)"/>
<path d="M0 0 C0.33 0 0.66 0 1 0 C1 2.31 1 4.62 1 7 C-0.32 7 -1.64 7 -3 7 C-1.125 1.125 -1.125 1.125 0 0 Z " fill="#F8BA0C" transform="translate(263,155)"/>
<path d="M0 0 C0 1.32 0 2.64 0 4 C-2.99332739 3.0022242 -3.94766315 2.2477975 -6 0 C-3.50907189 -1.24546405 -2.58919267 -0.7767578 0 0 Z " fill="#323765" transform="translate(187,355)"/>
<path d="M0 0 C1.98 0 3.96 0 6 0 C6.66 1.32 7.32 2.64 8 4 C7.01 4 6.02 4 5 4 C5 3.34 5 2.68 5 2 C3.35 1.67 1.7 1.34 0 1 C0 0.67 0 0.34 0 0 Z " fill="#383C56" transform="translate(133,349)"/>
<path d="M0 0 C1.32 0.33 2.64 0.66 4 1 C4.33 3.31 4.66 5.62 5 8 C2.20127563 5.47211993 0.54226981 3.79588866 0 0 Z " fill="#CF2675" transform="translate(275,237)"/>
<path d="M0 0 C0.99 0.99 1.98 1.98 3 3 C2.72963853 5.97397616 2.14553974 6.85446026 0 9 C0 6.03 0 3.06 0 0 Z " fill="#E02B59" transform="translate(247,159)"/>
</svg>
